HIERARCHY
ROOT Joint1
{
	OFFSET 0.000000 0.000000 0.000000
	CHANNELS 6 Xposition Yposition Zposition Xrotation Yrotation Zrotation
	JOINT Joint2
	{
		OFFSET -0.000000 0.000000 1.456275
		CHANNELS 6 Xposition Yposition Zposition Xrotation Yrotation Zrotation
		JOINT Joint3
		{
			OFFSET -0.000000 0.000002 1.471446
			CHANNELS 6 Xposition Yposition Zposition Xrotation Yrotation Zrotation
			JOINT Joint4
			{
				OFFSET 0.625745 0.000000 0.917755
				CHANNELS 6 Xposition Yposition Zposition Xrotation Yrotation Zrotation
				JOINT Joint5
				{
					OFFSET -0.629534 0.000001 0.940221
					CHANNELS 6 Xposition Yposition Zposition Xrotation Yrotation Zrotation
					JOINT Joint6
					{
						OFFSET -0.000001 0.113772 1.960660
						CHANNELS 6 Xposition Yposition Zposition Xrotation Yrotation Zrotation
						JOINT Joint7
						{
							OFFSET -0.669733 -0.113771 0.388340
							CHANNELS 6 Xposition Yposition Zposition Xrotation Yrotation Zrotation
							End Site
							{
								OFFSET 0.005509 0.005509 0.438980
							}
						}
					}
				}
			}
		}
	}
}
MOTION
Frames: 22
Frame Time: 0.041667
0.000000 0.000000 0.000000 -0.000000 1.019410 0.032959 -0.000000 0.000000 1.456275 0.000000 -44.977981 0.000000 -0.000000 0.000002 1.471446 0.000000 -1.133458 -0.051476 0.625745 0.000000 0.917755 0.000004 135.009071 -0.000001 -0.629534 0.000001 0.940221 -0.000000 1.709736 -0.009558 -0.000000 0.113772 1.960661 -88.313123 89.979075 -0.005993 -0.669733 -0.113771 0.388340 -0.704822 3.566198 134.944457 
0.000000 0.000000 0.000000 -0.000000 1.019410 0.152137 -0.000000 0.000000 1.456275 -0.000000 -44.970686 -0.000000 -0.000000 0.000002 1.471446 0.000000 -1.133458 -0.125460 0.625745 0.000000 0.917755 0.000004 134.980862 -0.000001 -0.629534 0.000001 0.940220 -0.000000 1.709736 -0.008016 -0.000001 0.113772 1.960660 -88.312201 89.977750 -0.005500 -0.669733 -0.113771 0.388341 -0.703689 3.566196 134.880691 
0.000000 0.000000 0.000000 -0.000000 1.019410 0.354397 -0.000000 0.000000 1.456275 -0.000000 -44.958296 0.000000 -0.000001 0.000002 1.471445 0.000000 -1.133459 -0.251019 0.625745 0.000000 0.917755 0.000004 134.933010 -0.000001 -0.629534 0.000001 0.940221 0.000000 1.709737 -0.005398 -0.000001 0.113772 1.960660 -88.311266 89.975489 -0.005398 -0.669733 -0.113771 0.388340 -0.701767 3.566191 134.772446 
0.000000 0.000000 0.000000 -0.000000 1.019410 0.642712 -0.000000 -0.000000 1.456275 -0.000000 -44.940640 0.000000 0.000000 0.000002 1.471445 0.000000 -1.133459 -0.429999 0.625745 0.000000 0.917755 0.000004 134.864790 -0.000001 -0.629534 0.000001 0.940221 0.000000 1.709737 -0.001666 -0.000001 0.113772 1.960660 -88.310664 89.972272 -0.004465 -0.669733 -0.113771 0.388340 -0.699026 3.566176 134.618152 
0.000000 0.000000 0.000000 -0.000000 1.019410 1.020051 -0.000000 -0.000000 1.456275 -0.000000 -44.917527 -0.000000 -0.000000 0.000002 1.471446 0.000000 -1.133461 -0.664244 0.625745 0.000000 0.917755 0.000004 134.775492 -0.000001 -0.629534 0.000001 0.940221 0.000000 1.709736 0.003218 -0.000001 0.113772 1.960660 -88.309865 89.968065 -0.003760 -0.669733 -0.113771 0.388340 -0.695439 3.566145 134.416224 
0.000000 0.000000 0.000000 -0.000000 1.019410 1.489385 -0.000000 -0.000000 1.456275 0.000000 -44.888782 -0.000000 -0.000000 0.000002 1.471446 -0.000000 -1.133462 -0.955598 0.625745 0.000000 0.917755 0.000004 134.664447 -0.000001 -0.629533 0.000001 0.940221 -0.000000 1.709736 0.009293 -0.000001 0.113772 1.960660 -88.308800 89.962833 -0.003302 -0.669733 -0.113771 0.388339 -0.690979 3.566090 134.165078 
0.000000 0.000000 0.000000 -0.000000 1.019410 2.053686 -0.000000 0.000000 1.456275 -0.000000 -44.854214 -0.000000 -0.000000 0.000002 1.471446 0.000000 -1.133459 -1.305905 0.625744 0.000000 0.917755 0.000004 134.530917 -0.000001 -0.629534 0.000001 0.940221 0.000000 1.709736 0.016597 -0.000000 0.113772 1.960660 -88.308294 89.956535 -0.002717 -0.669733 -0.113771 0.388340 -0.685616 3.565998 133.863102 
0.000000 0.000000 0.000000 -0.000000 1.019410 2.715923 -0.000000 0.000000 1.456275 -0.000000 -44.813657 0.000000 -0.000000 0.000002 1.471446 0.000000 -1.133460 -1.717009 0.625744 0.000000 0.917755 0.000003 134.374218 -0.000001 -0.629534 0.000001 0.940221 0.000000 1.709736 0.025169 -0.000001 0.113772 1.960660 -88.307577 89.949152 -0.002364 -0.669733 -0.113771 0.388340 -0.679323 3.565854 133.508724 
0.000000 0.000000 0.000000 -0.000000 1.019410 3.479068 -0.000000 0.000000 1.456275 0.000000 -44.766911 0.000000 -0.000000 0.000002 1.471446 -0.000000 -1.133458 -2.190754 0.625745 0.000000 0.917755 0.000004 134.193628 -0.000001 -0.629534 0.000001 0.940221 0.000000 1.709736 0.035047 -0.000001 0.113772 1.960661 -88.307167 89.940641 -0.002223 -0.669733 -0.113771 0.388339 -0.672072 3.565640 133.100333 
0.000000 0.000000 0.000000 -0.000000 1.019410 4.346092 -0.000000 -0.000000 1.456275 0.000000 -44.713803 0.000000 -0.000000 0.000002 1.471446 -0.000001 -1.133458 -2.728986 0.625744 0.000000 0.917755 0.000004 133.988463 -0.000001 -0.629533 0.000001 0.940221 0.000000 1.709736 0.046269 -0.000000 0.113772 1.960660 -88.306580 89.930970 -0.001906 -0.669733 -0.113771 0.388340 -0.663837 3.565333 132.636359 
0.000000 0.000000 0.000000 -0.000000 1.019410 5.319965 -0.000000 -0.000000 1.456275 -0.000000 -44.654151 -0.000000 -0.000000 0.000002 1.471446 0.000000 -1.133458 -3.333547 0.625745 0.000000 0.917755 0.000004 133.758026 -0.000001 -0.629534 0.000001 0.940221 0.000000 1.709737 0.058875 -0.000001 0.113772 1.960661 -88.306170 89.920110 -0.001538 -0.669733 -0.113771 0.388340 -0.654589 3.564911 132.115202 
0.000000 0.000000 0.000000 -0.000000 1.019410 6.403658 -0.000000 -0.000000 1.456275 -0.000000 -44.587779 0.000000 -0.000000 0.000002 1.471446 0.000000 -1.133460 -4.006282 0.625745 0.000000 0.917755 0.000003 133.501607 -0.000001 -0.629534 0.000001 0.940221 0.000000 1.709736 0.072902 -0.000000 0.113772 1.960660 -88.305883 89.908020 -0.001373 -0.669733 -0.113771 0.388340 -0.644305 3.564341 131.535291 
0.000000 0.000000 0.000000 -0.000000 1.019410 7.600140 -0.000000 0.000000 1.456275 0.000001 -44.514491 -0.000000 -0.000000 0.000002 1.471446 0.000000 -1.133463 -4.749034 0.625745 0.000000 0.917755 0.000003 133.218482 -0.000001 -0.629533 0.000001 0.940221 -0.000001 1.709737 0.088388 -0.000001 0.113772 1.960661 -88.305651 89.894681 -0.001167 -0.669733 -0.113771 0.388340 -0.632957 3.563592 130.895029 
0.000000 0.000000 0.000000 -0.000000 1.019410 8.911010 -0.000000 0.000000 1.456275 0.000000 -44.434202 0.000001 -0.000001 0.000002 1.471445 0.000000 -1.133462 -5.562797 0.625744 0.000000 0.917754 0.000003 132.908296 -0.000001 -0.629534 0.000001 0.940221 0.000000 1.709736 0.105356 -0.000002 0.113772 1.960660 -88.305446 89.880064 -0.001037 -0.669733 -0.113771 0.388340 -0.620535 3.562626 130.193542 
0.000000 0.000000 0.000000 -0.000000 1.019410 10.332353 -0.000000 -0.000000 1.456275 0.000000 -44.347148 -0.000001 -0.000000 0.000002 1.471445 -0.000001 -1.133464 -6.445139 0.625745 0.000000 0.917755 0.000004 132.571977 -0.000001 -0.629534 0.000001 0.940221 0.000000 1.709736 0.123753 -0.000001 0.113772 1.960660 -88.305228 89.864212 -0.000944 -0.669733 -0.113771 0.388340 -0.607081 3.561408 129.432959 
0.000000 0.000000 0.000000 -0.000000 1.019410 11.858889 -0.000000 -0.000000 1.456275 -0.000001 -44.253643 0.000000 -0.000000 0.000002 1.471446 0.000001 -1.133459 -7.392783 0.625744 0.000000 0.917755 0.000003 132.210770 -0.000001 -0.629534 0.000001 0.940221 0.000000 1.709736 0.143511 -0.000000 0.113772 1.960661 -88.305118 89.847184 -0.000818 -0.669733 -0.113771 0.388341 -0.592650 3.559901 128.616041 
0.000000 0.000000 0.000000 -0.000000 1.019410 13.485329 -0.000000 -0.000000 1.456275 0.000000 -44.154031 -0.000000 -0.000000 0.000002 1.471446 0.000001 -1.133457 -8.402444 0.625745 0.000000 0.917755 0.000004 131.825888 -0.000001 -0.629534 0.000001 0.940221 0.000002 1.709736 0.164563 -0.000001 0.113772 1.960660 -88.304982 89.829050 -0.000728 -0.669733 -0.113771 0.388340 -0.577299 3.558067 127.745684 
0.000000 0.000000 0.000000 -0.000000 1.019410 15.206388 -0.000000 0.000000 1.456275 -0.000002 -44.048614 0.000001 -0.000000 0.000002 1.471446 -0.000001 -1.133461 -9.470846 0.625744 0.000000 0.917755 0.000005 131.418659 -0.000001 -0.629534 0.000001 0.940221 -0.000000 1.709736 0.186840 -0.000000 0.113772 1.960660 -88.304872 89.809857 -0.000646 -0.669733 -0.113771 0.388340 -0.561089 3.555875 126.824728 
0.000000 0.000000 0.000000 -0.000000 1.019410 17.014928 -0.000000 -0.000000 1.456275 0.000001 -43.937835 -0.000000 -0.000001 0.000002 1.471446 0.000001 -1.133458 -10.593553 0.625745 0.000000 0.917755 0.000003 130.990707 0.000000 -0.629534 0.000001 0.940221 0.000000 1.709736 0.210249 -0.000001 0.113772 1.960660 -88.304777 89.789687 -0.000555 -0.669733 -0.113771 0.388340 -0.544095 3.553293 125.856945 
0.000000 0.000000 0.000000 -0.000000 1.019410 18.896410 -0.000000 0.000000 1.456275 -0.000002 -43.822596 -0.000002 -0.000000 0.000002 1.471446 -0.000002 -1.133463 -11.761541 0.625744 0.000000 0.917755 0.000003 130.545488 -0.000002 -0.629534 0.000001 0.940221 0.000001 1.709737 0.234602 -0.000001 0.113772 1.960660 -88.304668 89.768698 -0.000525 -0.669733 -0.113771 0.388339 -0.526465 3.550301 124.850107 
0.000000 0.000000 0.000000 -0.000000 1.019410 20.834445 -0.000000 0.000000 1.456275 -0.000001 -43.703891 -0.000001 -0.000000 0.000002 1.471446 -0.000002 -1.133466 -12.964636 0.625745 0.000000 0.917755 0.000005 130.086895 -0.000001 -0.629534 0.000001 0.940221 0.000000 1.709737 0.259687 -0.000000 0.113772 1.960660 -88.304688 89.747087 -0.000492 -0.669733 -0.113771 0.388340 -0.508362 3.546899 123.813011 
0.000000 0.000000 0.000000 -0.000000 1.019410 22.812635 -0.000000 0.000000 1.456275 0.000000 -43.582730 -0.000001 -0.000000 0.000002 1.471446 0.000001 -1.133460 -14.192655 0.625744 0.000000 0.917755 0.000005 129.618822 -0.000001 -0.629534 0.000001 0.940221 0.000000 1.709736 0.285293 -0.000000 0.113772 1.960661 -88.304497 89.725026 -0.000452 -0.669733 -0.113771 0.388339 -0.489952 3.543088 122.754468 
